<svg width="134" height="64" viewBox="0 0 134 64" fill="none" xmlns="http://www.w3.org/2000/svg">
<g filter="url(#filter0_d_2_204)">
<rect x="15" y="15" width="104" height="34" rx="17" fill="#DF5532"/>
</g>
<path d="M73.6445 32.6045H69.4678V37H68.1553V27.0469H74.3213V28.127H69.4678V31.5312H73.6445V32.6045ZM77.0693 37H75.8047V29.6035H77.0693V37ZM75.7021 27.6416C75.7021 27.4365 75.7637 27.2633 75.8867 27.1221C76.0143 26.9808 76.2012 26.9102 76.4473 26.9102C76.6934 26.9102 76.8802 26.9808 77.0078 27.1221C77.1354 27.2633 77.1992 27.4365 77.1992 27.6416C77.1992 27.8467 77.1354 28.0176 77.0078 28.1543C76.8802 28.291 76.6934 28.3594 76.4473 28.3594C76.2012 28.3594 76.0143 28.291 75.8867 28.1543C75.7637 28.0176 75.7021 27.8467 75.7021 27.6416ZM80.4736 37H79.209V26.5H80.4736V37ZM84.2197 27.8125V29.6035H85.6006V30.5811H84.2197V35.168C84.2197 35.4642 84.2812 35.6875 84.4043 35.8379C84.5273 35.9837 84.737 36.0566 85.0332 36.0566C85.179 36.0566 85.3796 36.0293 85.6348 35.9746V37C85.3021 37.0911 84.9785 37.1367 84.6641 37.1367C84.099 37.1367 83.6729 36.9658 83.3857 36.624C83.0986 36.2822 82.9551 35.7969 82.9551 35.168V30.5811H81.6084V29.6035H82.9551V27.8125H84.2197ZM90.1533 37.1367C89.1507 37.1367 88.335 36.8086 87.7061 36.1523C87.0771 35.4915 86.7627 34.6097 86.7627 33.5068V33.2744C86.7627 32.5407 86.9017 31.8867 87.1797 31.3125C87.4622 30.7337 87.8542 30.2826 88.3555 29.959C88.8613 29.6309 89.4082 29.4668 89.9961 29.4668C90.9577 29.4668 91.7051 29.7835 92.2383 30.417C92.7715 31.0505 93.0381 31.9574 93.0381 33.1377V33.6641H88.0273C88.0456 34.3932 88.2575 34.9834 88.6631 35.4346C89.0732 35.8812 89.5928 36.1045 90.2217 36.1045C90.6683 36.1045 91.0465 36.0133 91.3564 35.8311C91.6663 35.6488 91.9375 35.4072 92.1699 35.1064L92.9424 35.708C92.3226 36.6605 91.3929 37.1367 90.1533 37.1367ZM89.9961 30.5059C89.4857 30.5059 89.0573 30.6927 88.7109 31.0664C88.3646 31.4355 88.1504 31.9551 88.0684 32.625H91.7734V32.5293C91.737 31.8867 91.5638 31.39 91.2539 31.0391C90.944 30.6836 90.5247 30.5059 89.9961 30.5059ZM98.083 30.7383C97.8916 30.7064 97.6842 30.6904 97.4609 30.6904C96.6315 30.6904 96.0687 31.0436 95.7725 31.75V37H94.5078V29.6035H95.7383L95.7588 30.458C96.1735 29.7972 96.7614 29.4668 97.5225 29.4668C97.7686 29.4668 97.9554 29.4987 98.083 29.5625V30.7383Z" fill="white"/>
<path d="M45 38H49V36H45V38ZM38 26V28H56V26H38ZM41 33H53V31H41V33Z" fill="white"/>
<defs>
<filter id="filter0_d_2_204" x="0" y="0" width="134" height="64" filterUnits="userSpaceOnUse" color-interpolation-filters="sRGB">
<feFlood flood-opacity="0" result="BackgroundImageFix"/>
<feColorMatrix in="SourceAlpha" type="matrix" values="0 0 0 0 0 0 0 0 0 0 0 0 0 0 0 0 0 0 127 0" result="hardAlpha"/>
<feOffset/>
<feGaussianBlur stdDeviation="7.5"/>
<feColorMatrix type="matrix" values="0 0 0 0 0.87451 0 0 0 0 0.333333 0 0 0 0 0.196078 0 0 0 0.25 0"/>
<feBlend mode="normal" in2="BackgroundImageFix" result="effect1_dropShadow_2_204"/>
<feBlend mode="normal" in="SourceGraphic" in2="effect1_dropShadow_2_204" result="shape"/>
</filter>
</defs>
</svg>
