<svg width="21" height="20" viewBox="0 0 21 20" fill="none" xmlns="http://www.w3.org/2000/svg">
<path d="M3.625 0C2.9293 0.000130313 2.25351 0.232298 1.70461 0.659752C1.15571 1.08721 0.765063 1.68553 0.594502 2.36C0.899821 2.25442 1.22617 2.22438 1.54563 2.27244C1.8651 2.3205 2.16816 2.44523 2.42891 2.63596C2.68965 2.82669 2.90031 3.07775 3.04286 3.36766C3.18542 3.65756 3.25562 3.97768 3.24747 4.30064C3.23932 4.62359 3.15306 4.93976 2.99607 5.22211C2.83907 5.50446 2.61602 5.74457 2.34599 5.92191C2.07596 6.09925 1.76699 6.20853 1.44551 6.24042C1.12403 6.27231 0.799607 6.22584 0.500002 6.105V14.875C0.500002 15.7038 0.829242 16.4987 1.41529 17.0847C2.00134 17.6708 2.7962 18 3.625 18H9.522C8.85285 16.9554 8.49809 15.7405 8.5 14.5C8.5 13.316 8.8165 12.206 9.37 11.25H6.125C5.95924 11.25 5.80027 11.1842 5.68306 11.0669C5.56585 10.9497 5.5 10.7908 5.5 10.625C5.5 10.4592 5.56585 10.3003 5.68306 10.1831C5.80027 10.0658 5.95924 10 6.125 10H10.31C11.4925 8.7675 13.1565 8 15 8C16.2885 8 17.49 8.375 18.5 9.022V3.125C18.5 2.2962 18.1708 1.50134 17.5847 0.915291C16.9987 0.32924 16.2038 0 15.375 0H3.625ZM5.5 7.125C5.5 6.78 5.78 6.5 6.125 6.5H12.875C12.9571 6.5 13.0384 6.51617 13.1142 6.54757C13.19 6.57898 13.2589 6.62502 13.3169 6.68306C13.375 6.74109 13.421 6.80999 13.4524 6.88582C13.4838 6.96165 13.5 7.04292 13.5 7.125C13.5 7.20708 13.4838 7.28835 13.4524 7.36418C13.421 7.44001 13.375 7.50891 13.3169 7.56694C13.2589 7.62498 13.19 7.67102 13.1142 7.70243C13.0384 7.73383 12.9571 7.75 12.875 7.75H6.125C5.78 7.75 5.5 7.47 5.5 7.125Z" fill="#D6D1D5"/>
<path d="M1.25 3C1.08578 2.99974 0.923112 3.03189 0.771336 3.09461C0.61956 3.15734 0.481656 3.2494 0.365531 3.36553C0.249405 3.48166 0.157341 3.61956 0.0946156 3.77133C0.0318905 3.92311 -0.00026179 4.08577 1.60529e-06 4.25C-0.00026179 4.41423 0.0318905 4.57689 0.0946156 4.72867C0.157341 4.88044 0.249405 5.01835 0.365531 5.13447C0.481656 5.2506 0.61956 5.34266 0.771336 5.40539C0.923112 5.46811 1.08578 5.50026 1.25 5.5C1.58152 5.5 1.89946 5.3683 2.13389 5.13388C2.36831 4.89946 2.5 4.58152 2.5 4.25C2.5 3.91848 2.36831 3.60054 2.13389 3.36612C1.89946 3.1317 1.58152 3 1.25 3Z" fill="#D6D1D5"/>
<path d="M20.5 14.5C20.5 17.5375 18.0375 20 15 20C11.9625 20 9.5 17.5375 9.5 14.5C9.5 11.4625 11.9625 9 15 9C18.0375 9 20.5 11.4625 20.5 14.5ZM15.5 11C15.5 10.8674 15.4473 10.7402 15.3536 10.6464C15.2598 10.5527 15.1326 10.5 15 10.5C14.8674 10.5 14.7402 10.5527 14.6464 10.6464C14.5527 10.7402 14.5 10.8674 14.5 11V14H11.5C11.3674 14 11.2402 14.0527 11.1464 14.1464C11.0527 14.2402 11 14.3674 11 14.5C11 14.6326 11.0527 14.7598 11.1464 14.8536C11.2402 14.9473 11.3674 15 11.5 15H14.5V18C14.5 18.1326 14.5527 18.2598 14.6464 18.3536C14.7402 18.4473 14.8674 18.5 15 18.5C15.1326 18.5 15.2598 18.4473 15.3536 18.3536C15.4473 18.2598 15.5 18.1326 15.5 18V15H18.5C18.6326 15 18.7598 14.9473 18.8536 14.8536C18.9473 14.7598 19 14.6326 19 14.5C19 14.3674 18.9473 14.2402 18.8536 14.1464C18.7598 14.0527 18.6326 14 18.5 14H15.5V11Z" fill="#D6D1D5"/>
</svg>
