<svg width="12" height="12" viewBox="0 0 12 12" fill="none" xmlns="http://www.w3.org/2000/svg">
<path d="M8.33334 7.33334H7.80667L7.62 7.15334C8.29592 6.36935 8.6674 5.36846 8.66667 4.33334C8.66667 3.47628 8.41252 2.63848 7.93637 1.92586C7.46022 1.21325 6.78344 0.657837 5.99163 0.329857C5.19982 0.00187757 4.32853 -0.0839369 3.48794 0.0832657C2.64736 0.250468 1.87523 0.663178 1.26921 1.26921C0.663178 1.87523 0.250468 2.64736 0.0832657 3.48794C-0.0839369 4.32853 0.00187757 5.19982 0.329857 5.99163C0.657837 6.78344 1.21325 7.46022 1.92586 7.93637C2.63848 8.41252 3.47628 8.66667 4.33334 8.66667C5.40667 8.66667 6.39334 8.27334 7.15334 7.62L7.33334 7.80667V8.33334L10.6667 11.66L11.66 10.6667L8.33334 7.33334ZM4.33334 7.33334C2.67334 7.33334 1.33334 5.99334 1.33334 4.33334C1.33334 2.67334 2.67334 1.33334 4.33334 1.33334C5.99334 1.33334 7.33334 2.67334 7.33334 4.33334C7.33334 5.99334 5.99334 7.33334 4.33334 7.33334Z" fill="white"/>
</svg>
